<mxfile host="app.diagrams.net" agent="Mozilla/5.0 (Windows NT 10.0; Win64; x64) AppleWebKit/537.36 (KHTML, like Gecko) Chrome/129.0.0.0 Safari/537.36 Edg/129.0.0.0" version="24.7.16">
  <diagram name="Page-1" id="SI_wSblAl2kIj9KZGYPf">
    <mxGraphModel dx="832" dy="515" grid="0" gridSize="10" guides="1" tooltips="1" connect="1" arrows="1" fold="1" page="1" pageScale="1" pageWidth="1169" pageHeight="827" background="#ffffff" math="0" shadow="0">
      <root>
        <mxCell id="0" />
        <mxCell id="1" parent="0" />
        <mxCell id="3l10VnUrjeutRKuHirps-1" value="" style="rounded=0;whiteSpace=wrap;html=1;" vertex="1" parent="1">
          <mxGeometry x="104" y="56" width="1072" height="723" as="geometry" />
        </mxCell>
        <mxCell id="kESa1TjOKg0tqt4dM9gC-7" value="&lt;font style=&quot;font-size: 18px;&quot;&gt;&lt;b&gt;User&lt;/b&gt;&lt;/font&gt;" style="shape=umlLifeline;perimeter=lifelinePerimeter;whiteSpace=wrap;html=1;container=1;dropTarget=0;collapsible=0;recursiveResize=0;outlineConnect=0;portConstraint=eastwest;newEdgeStyle={&quot;curved&quot;:0,&quot;rounded&quot;:0};" parent="1" vertex="1">
          <mxGeometry x="135" y="88" width="193" height="651" as="geometry" />
        </mxCell>
        <mxCell id="kESa1TjOKg0tqt4dM9gC-8" value="&lt;font style=&quot;font-size: 18px;&quot;&gt;&lt;b&gt;Client&lt;/b&gt;&lt;/font&gt;" style="shape=umlLifeline;perimeter=lifelinePerimeter;whiteSpace=wrap;html=1;container=1;dropTarget=0;collapsible=0;recursiveResize=0;outlineConnect=0;portConstraint=eastwest;newEdgeStyle={&quot;curved&quot;:0,&quot;rounded&quot;:0};" parent="1" vertex="1">
          <mxGeometry x="488" y="88" width="193" height="651" as="geometry" />
        </mxCell>
        <mxCell id="kESa1TjOKg0tqt4dM9gC-9" value="&lt;font style=&quot;font-size: 18px;&quot;&gt;&lt;b&gt;Server&lt;/b&gt;&lt;/font&gt;" style="shape=umlLifeline;perimeter=lifelinePerimeter;whiteSpace=wrap;html=1;container=1;dropTarget=0;collapsible=0;recursiveResize=0;outlineConnect=0;portConstraint=eastwest;newEdgeStyle={&quot;curved&quot;:0,&quot;rounded&quot;:0};" parent="1" vertex="1">
          <mxGeometry x="816" y="88" width="193" height="651" as="geometry" />
        </mxCell>
        <mxCell id="kESa1TjOKg0tqt4dM9gC-10" value="&lt;font color=&quot;#ff0000&quot; style=&quot;font-size: 13px;&quot;&gt;I want something&lt;/font&gt;" style="html=1;verticalAlign=bottom;endArrow=block;curved=0;rounded=0;" parent="1" edge="1">
          <mxGeometry width="80" relative="1" as="geometry">
            <mxPoint x="231.00352941176465" y="195" as="sourcePoint" />
            <mxPoint x="584.18" y="195" as="targetPoint" />
          </mxGeometry>
        </mxCell>
        <mxCell id="kESa1TjOKg0tqt4dM9gC-11" value="&lt;font color=&quot;#ff0000&quot; style=&quot;font-size: 13px;&quot;&gt;Redirection to Login&lt;/font&gt;" style="html=1;verticalAlign=bottom;endArrow=block;curved=0;rounded=0;" parent="1" source="kESa1TjOKg0tqt4dM9gC-8" target="kESa1TjOKg0tqt4dM9gC-7" edge="1">
          <mxGeometry width="80" relative="1" as="geometry">
            <mxPoint x="241" y="424" as="sourcePoint" />
            <mxPoint x="367" y="342" as="targetPoint" />
            <Array as="points">
              <mxPoint x="417" y="251" />
            </Array>
          </mxGeometry>
        </mxCell>
        <mxCell id="kESa1TjOKg0tqt4dM9gC-12" value="" style="html=1;verticalAlign=bottom;endArrow=block;curved=0;rounded=0;" parent="1" source="kESa1TjOKg0tqt4dM9gC-7" target="kESa1TjOKg0tqt4dM9gC-9" edge="1">
          <mxGeometry width="80" relative="1" as="geometry">
            <mxPoint x="504" y="425" as="sourcePoint" />
            <mxPoint x="584" y="425" as="targetPoint" />
            <Array as="points">
              <mxPoint x="576" y="305" />
            </Array>
          </mxGeometry>
        </mxCell>
        <mxCell id="kESa1TjOKg0tqt4dM9gC-13" value="Login" style="html=1;whiteSpace=wrap;strokeColor=none;fillColor=#0079D6;labelPosition=center;verticalLabelPosition=middle;verticalAlign=top;align=center;fontSize=12;outlineConnect=0;spacingTop=-6;fontColor=#FFFFFF;sketch=0;shape=mxgraph.sitemap.login;" parent="1" vertex="1">
          <mxGeometry x="925" y="264" width="131" height="83" as="geometry" />
        </mxCell>
        <mxCell id="kESa1TjOKg0tqt4dM9gC-17" value="" style="edgeStyle=none;orthogonalLoop=1;jettySize=auto;html=1;rounded=0;exitX=1;exitY=0.5;exitDx=0;exitDy=0;exitPerimeter=0;" parent="1" source="kESa1TjOKg0tqt4dM9gC-13" target="kESa1TjOKg0tqt4dM9gC-9" edge="1">
          <mxGeometry width="80" relative="1" as="geometry">
            <mxPoint x="1138" y="317" as="sourcePoint" />
            <mxPoint x="1138" y="386" as="targetPoint" />
            <Array as="points">
              <mxPoint x="1122" y="306" />
              <mxPoint x="1122" y="377" />
              <mxPoint x="990" y="377" />
            </Array>
          </mxGeometry>
        </mxCell>
        <mxCell id="kESa1TjOKg0tqt4dM9gC-18" value="&lt;span style=&quot;font-size: 13px;&quot;&gt;&lt;font color=&quot;#ff0000&quot;&gt;authorization code&lt;/font&gt;&lt;/span&gt;" style="html=1;verticalAlign=bottom;endArrow=block;curved=0;rounded=0;" parent="1" source="kESa1TjOKg0tqt4dM9gC-9" target="kESa1TjOKg0tqt4dM9gC-8" edge="1">
          <mxGeometry width="80" relative="1" as="geometry">
            <mxPoint x="698" y="425" as="sourcePoint" />
            <mxPoint x="778" y="425" as="targetPoint" />
            <Array as="points">
              <mxPoint x="745" y="378" />
            </Array>
          </mxGeometry>
        </mxCell>
        <mxCell id="kESa1TjOKg0tqt4dM9gC-19" value="&lt;span style=&quot;font-size: 13px;&quot;&gt;&lt;font color=&quot;#ff0000&quot;&gt;client credentials, authorization code&lt;/font&gt;&lt;/span&gt;" style="html=1;verticalAlign=bottom;endArrow=block;curved=0;rounded=0;" parent="1" source="kESa1TjOKg0tqt4dM9gC-8" target="kESa1TjOKg0tqt4dM9gC-9" edge="1">
          <mxGeometry width="80" relative="1" as="geometry">
            <mxPoint x="936" y="448" as="sourcePoint" />
            <mxPoint x="608" y="448" as="targetPoint" />
            <Array as="points">
              <mxPoint x="769" y="448" />
            </Array>
          </mxGeometry>
        </mxCell>
        <mxCell id="kESa1TjOKg0tqt4dM9gC-20" value="&lt;span style=&quot;font-size: 13px;&quot;&gt;&lt;font color=&quot;#ff0000&quot;&gt;access token&lt;/font&gt;&lt;/span&gt;" style="html=1;verticalAlign=bottom;endArrow=block;curved=0;rounded=0;" parent="1" edge="1">
          <mxGeometry width="80" relative="1" as="geometry">
            <mxPoint x="910" y="509" as="sourcePoint" />
            <mxPoint x="582" y="509" as="targetPoint" />
            <Array as="points">
              <mxPoint x="743" y="509" />
            </Array>
          </mxGeometry>
        </mxCell>
        <mxCell id="kESa1TjOKg0tqt4dM9gC-21" value="&lt;span style=&quot;font-size: 13px;&quot;&gt;&lt;font color=&quot;#ff0000&quot;&gt;request [ access token ]&lt;/font&gt;&lt;/span&gt;" style="html=1;verticalAlign=bottom;endArrow=block;curved=0;rounded=0;" parent="1" edge="1">
          <mxGeometry width="80" relative="1" as="geometry">
            <mxPoint x="585" y="603" as="sourcePoint" />
            <mxPoint x="913" y="603" as="targetPoint" />
            <Array as="points">
              <mxPoint x="770" y="603" />
            </Array>
          </mxGeometry>
        </mxCell>
        <mxCell id="kESa1TjOKg0tqt4dM9gC-22" value="&lt;span style=&quot;font-size: 13px;&quot;&gt;&lt;font color=&quot;#ff0000&quot;&gt;resource&lt;/font&gt;&lt;/span&gt;" style="html=1;verticalAlign=bottom;endArrow=block;curved=0;rounded=0;" parent="1" edge="1">
          <mxGeometry width="80" relative="1" as="geometry">
            <mxPoint x="913" y="665" as="sourcePoint" />
            <mxPoint x="585" y="665" as="targetPoint" />
            <Array as="points">
              <mxPoint x="746" y="665" />
            </Array>
          </mxGeometry>
        </mxCell>
        <mxCell id="kESa1TjOKg0tqt4dM9gC-23" value="&lt;font color=&quot;#ff0000&quot; style=&quot;font-size: 13px;&quot;&gt;Client Redirect URL&lt;/font&gt;" style="text;strokeColor=none;align=center;fillColor=none;html=1;verticalAlign=middle;whiteSpace=wrap;rounded=0;" parent="1" vertex="1">
          <mxGeometry x="967" y="384" width="125" height="30" as="geometry" />
        </mxCell>
      </root>
    </mxGraphModel>
  </diagram>
</mxfile>
